<?xml version="1.0" encoding="UTF-8" standalone="no"?>
<!DOCTYPE svg PUBLIC "-//W3C//DTD SVG 1.1//EN" "http://www.w3.org/Graphics/SVG/1.1/DTD/svg11.dtd">
<svg xmlns="http://www.w3.org/2000/svg" version="1.1" viewBox="0.00 0.00 643.00 643.00">
<g stroke-width="2.00" fill="none" stroke-linecap="butt">
<path stroke="#808080" vector-effect="non-scaling-stroke" d="
  M 389.74 137.96
  C 412.09 114.69 424.50 86.58 421.83 54.07
  Q 421.79 53.57 421.29 53.61
  C 397.93 55.06 371.86 67.17 354.78 83.47
  Q 332.09 105.12 323.27 134.11
  Q 318.31 150.41 319.97 168.32
  Q 320.02 168.88 320.58 168.91
  C 348.11 170.63 371.18 157.27 389.74 137.96"
/>
<path stroke="#808080" vector-effect="non-scaling-stroke" d="
  M 511.53 217.39
  C 491.29 189.22 460.93 173.86 426.98 170.16
  C 421.79 169.59 416.48 168.77 411.30 169.02
  Q 391.94 169.98 375.14 175.55
  Q 358.86 180.95 339.97 187.66
  Q 333.77 189.86 326.93 191.41
  Q 322.93 192.33 319.27 191.60
  Q 309.94 189.77 300.23 186.20
  Q 286.01 180.99 272.65 176.54
  C 261.69 172.89 249.43 170.11 237.78 170.42
  Q 209.06 171.18 183.44 185.14
  C 147.22 204.87 124.24 241.22 116.96 282.02
  Q 114.57 295.48 114.13 309.32
  Q 113.28 336.53 118.45 363.03
  Q 128.65 415.34 155.00 460.81
  C 162.09 473.05 170.75 484.90 179.35 496.15
  C 190.16 510.29 203.39 525.03 218.56 533.90
  C 232.52 542.05 247.21 543.14 262.23 539.08
  Q 274.99 535.62 288.46 530.14
  C 309.38 521.63 332.77 519.25 354.83 525.30
  Q 365.23 528.15 376.53 532.76
  C 389.50 538.06 405.82 542.45 419.62 540.39
  C 441.05 537.20 457.37 522.88 470.71 506.68
  Q 484.26 490.22 495.65 472.72
  C 507.93 453.85 517.42 433.46 524.79 411.73
  A 0.71 0.71 0.0 0 0 524.40 410.86
  Q 501.56 401.07 483.91 381.52
  Q 461.11 356.27 457.95 321.70
  C 454.89 288.08 464.73 257.67 490.02 234.34
  Q 499.57 225.53 511.33 218.37
  A 0.69 0.68 -33.9 0 0 511.53 217.39"
/>
</g>
<path fill="#ffffff" d="
  M 310.88 0.00
  L 332.25 0.00
  Q 339.74 0.63 347.23 1.23
  Q 404.82 5.81 455.80 29.43
  Q 529.77 63.70 578.91 128.88
  C 616.13 178.25 638.60 239.26 642.26 300.64
  Q 642.57 305.76 643.00 310.88
  L 643.00 332.25
  Q 642.56 337.32 642.26 342.40
  C 636.51 438.09 586.39 527.40 508.58 582.89
  C 459.99 617.54 402.39 638.69 342.36 642.26
  Q 337.24 642.57 332.12 643.00
  L 310.75 643.00
  Q 305.76 642.56 300.75 642.27
  C 244.51 638.92 190.04 620.09 143.80 589.33
  C 86.89 551.47 42.89 496.46 19.29 431.27
  Q 4.72 391.04 1.24 347.48
  Q 0.63 339.80 0.00 332.12
  L 0.00 310.75
  Q 0.46 305.67 0.74 300.58
  Q 1.11 293.86 1.47 290.44
  Q 11.64 192.53 73.63 116.83
  Q 104.14 79.57 145.33 52.63
  C 191.58 22.38 245.07 4.14 300.63 0.74
  Q 305.76 0.43 310.88 0.00
  Z
  M 389.74 137.96
  C 412.09 114.69 424.50 86.58 421.83 54.07
  Q 421.79 53.57 421.29 53.61
  C 397.93 55.06 371.86 67.17 354.78 83.47
  Q 332.09 105.12 323.27 134.11
  Q 318.31 150.41 319.97 168.32
  Q 320.02 168.88 320.58 168.91
  C 348.11 170.63 371.18 157.27 389.74 137.96
  Z
  M 511.53 217.39
  C 491.29 189.22 460.93 173.86 426.98 170.16
  C 421.79 169.59 416.48 168.77 411.30 169.02
  Q 391.94 169.98 375.14 175.55
  Q 358.86 180.95 339.97 187.66
  Q 333.77 189.86 326.93 191.41
  Q 322.93 192.33 319.27 191.60
  Q 309.94 189.77 300.23 186.20
  Q 286.01 180.99 272.65 176.54
  C 261.69 172.89 249.43 170.11 237.78 170.42
  Q 209.06 171.18 183.44 185.14
  C 147.22 204.87 124.24 241.22 116.96 282.02
  Q 114.57 295.48 114.13 309.32
  Q 113.28 336.53 118.45 363.03
  Q 128.65 415.34 155.00 460.81
  C 162.09 473.05 170.75 484.90 179.35 496.15
  C 190.16 510.29 203.39 525.03 218.56 533.90
  C 232.52 542.05 247.21 543.14 262.23 539.08
  Q 274.99 535.62 288.46 530.14
  C 309.38 521.63 332.77 519.25 354.83 525.30
  Q 365.23 528.15 376.53 532.76
  C 389.50 538.06 405.82 542.45 419.62 540.39
  C 441.05 537.20 457.37 522.88 470.71 506.68
  Q 484.26 490.22 495.65 472.72
  C 507.93 453.85 517.42 433.46 524.79 411.73
  A 0.71 0.71 0.0 0 0 524.40 410.86
  Q 501.56 401.07 483.91 381.52
  Q 461.11 356.27 457.95 321.70
  C 454.89 288.08 464.73 257.67 490.02 234.34
  Q 499.57 225.53 511.33 218.37
  A 0.69 0.68 -33.9 0 0 511.53 217.39
  Z"
/>
<path fill="#000000" d="
  M 421.83 54.07
  C 424.50 86.58 412.09 114.69 389.74 137.96
  C 371.18 157.27 348.11 170.63 320.58 168.91
  Q 320.02 168.88 319.97 168.32
  Q 318.31 150.41 323.27 134.11
  Q 332.09 105.12 354.78 83.47
  C 371.86 67.17 397.93 55.06 421.29 53.61
  Q 421.79 53.57 421.83 54.07
  Z"
/>
<path fill="#000000" d="
  M 426.98 170.16
  C 460.93 173.86 491.29 189.22 511.53 217.39
  A 0.69 0.68 -33.9 0 1 511.33 218.37
  Q 499.57 225.53 490.02 234.34
  C 464.73 257.67 454.89 288.08 457.95 321.70
  Q 461.11 356.27 483.91 381.52
  Q 501.56 401.07 524.40 410.86
  A 0.71 0.71 0.0 0 1 524.79 411.73
  C 517.42 433.46 507.93 453.85 495.65 472.72
  Q 484.26 490.22 470.71 506.68
  C 457.37 522.88 441.05 537.20 419.62 540.39
  C 405.82 542.45 389.50 538.06 376.53 532.76
  Q 365.23 528.15 354.83 525.30
  C 332.77 519.25 309.38 521.63 288.46 530.14
  Q 274.99 535.62 262.23 539.08
  C 247.21 543.14 232.52 542.05 218.56 533.90
  C 203.39 525.03 190.16 510.29 179.35 496.15
  C 170.75 484.90 162.09 473.05 155.00 460.81
  Q 128.65 415.34 118.45 363.03
  Q 113.28 336.53 114.13 309.32
  Q 114.57 295.48 116.96 282.02
  C 124.24 241.22 147.22 204.87 183.44 185.14
  Q 209.06 171.18 237.78 170.42
  C 249.43 170.11 261.69 172.89 272.65 176.54
  Q 286.01 180.99 300.23 186.20
  Q 309.94 189.77 319.27 191.60
  Q 322.93 192.33 326.93 191.41
  Q 333.77 189.86 339.97 187.66
  Q 358.86 180.95 375.14 175.55
  Q 391.94 169.98 411.30 169.02
  C 416.48 168.77 421.79 169.59 426.98 170.16
  Z"
/>
</svg>
