<?xml version="1.0" encoding="UTF-8" standalone="no"?>
<!DOCTYPE svg PUBLIC "-//W3C//DTD SVG 1.1//EN" "http://www.w3.org/Graphics/SVG/1.1/DTD/svg11.dtd">
<svg xmlns="http://www.w3.org/2000/svg" version="1.1" viewBox="0.00 0.00 696.00 696.00">
<g stroke-width="2.00" fill="none" stroke-linecap="butt">
<path stroke="#ffea80" vector-effect="non-scaling-stroke" d="
  M 129.52 222.43
  Q 129.01 222.84 128.67 223.44
  C 110.63 254.98 99.48 289.83 96.16 325.94
  Q 89.14 402.32 125.44 470.59
  Q 127.33 474.14 129.52 478.00"
/>
<path stroke="#89d9a3" vector-effect="non-scaling-stroke" d="
  M 129.52 478.00
  Q 154.18 520.62 193.17 551.33
  C 238.19 586.77 293.62 605.98 350.97 605.97"
/>
<path stroke="#87cc9f" vector-effect="non-scaling-stroke" d="
  M 350.97 605.97
  Q 359.61 606.16 368.25 605.55
  Q 427.31 601.40 478.58 572.12
  Q 479.06 571.84 479.08 571.51"
/>
<path stroke="#8bbff3" vector-effect="non-scaling-stroke" d="
  M 479.08 571.51
  Q 525.71 544.57 556.88 503.12
  Q 600.56 445.04 606.39 370.10
  Q 608.31 345.48 604.57 321.63
  Q 603.81 316.77 601.91 313.63
  C 598.10 307.29 592.31 305.40 584.89 305.42
  Q 488.56 305.61 379.85 305.44
  C 372.59 305.43 366.44 308.87 363.54 315.50
  Q 362.04 318.92 362.08 324.90
  Q 362.32 368.28 362.10 387.16
  Q 361.95 399.96 372.57 404.28
  Q 375.74 405.57 378.94 405.57
  Q 441.56 405.54 495.89 405.58
  A 0.40 0.39 10.9 0 1 496.26 406.12
  Q 475.85 456.79 428.96 484.76"
/>
<path stroke="#87cc9f" vector-effect="non-scaling-stroke" d="
  M 428.96 484.76
  Q 425.22 486.50 421.34 488.51
  Q 397.04 501.05 370.01 504.49
  Q 366.40 504.94 360.48 505.27
  Q 355.58 505.54 350.93 505.83"
/>
<path stroke="#89d9a3" vector-effect="non-scaling-stroke" d="
  M 350.93 505.83
  C 294.69 505.43 244.65 476.09 216.37 428.13
  Q 216.26 427.94 216.04 427.97"
/>
<path stroke="#ffea80" vector-effect="non-scaling-stroke" d="
  M 216.04 427.97
  Q 216.15 427.74 216.02 427.50
  Q 197.16 394.69 195.30 356.75
  Q 193.10 311.97 216.28 272.07"
/>
<path stroke="#ffa593" vector-effect="non-scaling-stroke" d="
  M 216.28 272.07
  C 244.71 223.72 294.74 194.57 350.95 194.16"
/>
<path stroke="#ec9f90" vector-effect="non-scaling-stroke" d="
  M 350.95 194.16
  Q 355.76 194.48 360.81 194.75
  C 393.18 196.44 423.79 208.81 449.20 229.29
  Q 457.59 236.05 466.87 232.40
  C 470.66 230.91 473.75 227.66 476.57 224.81
  Q 496.45 204.77 518.15 183.14
  C 524.17 177.14 526.67 170.06 522.89 162.15
  Q 521.24 158.69 516.24 154.52
  Q 458.85 106.66 385.76 96.18
  Q 369.32 93.82 350.96 94.00"
/>
<path stroke="#ffa593" vector-effect="non-scaling-stroke" d="
  M 350.96 94.00
  C 259.55 94.18 175.39 142.64 129.53 222.00
  Q 129.40 222.23 129.52 222.43"
/>
<path stroke="#ec4524" vector-effect="non-scaling-stroke" d="
  M 350.96 94.00
  L 350.95 194.16"
/>
<path stroke="#ff9013" vector-effect="non-scaling-stroke" d="
  M 216.28 272.07
  L 129.52 222.43"
/>
<path stroke="#89c424" vector-effect="non-scaling-stroke" d="
  M 216.04 427.97
  L 129.52 478.00"
/>
<path stroke="#11a643" vector-effect="non-scaling-stroke" d="
  M 350.93 505.83
  L 350.97 605.97"
/>
<path stroke="#138c92" vector-effect="non-scaling-stroke" d="
  M 479.08 571.51
  L 428.96 484.76"
/>
</g>
<path fill="#ffffff" d="
  M 337.88 0.00
  L 358.50 0.00
  Q 366.75 0.59 374.98 1.22
  Q 420.61 4.72 463.12 19.52
  Q 472.41 22.76 481.77 26.75
  Q 563.67 61.66 617.39 127.62
  Q 691.18 218.22 696.00 337.88
  L 696.00 358.50
  Q 695.38 367.44 694.63 376.36
  Q 687.60 459.83 644.76 529.74
  C 604.24 595.85 542.85 646.54 470.17 673.86
  Q 424.74 690.93 374.98 694.78
  Q 366.56 695.43 358.12 696.00
  L 337.75 696.00
  Q 329.37 695.43 321.02 694.78
  Q 261.68 690.20 208.47 666.77
  Q 139.96 636.62 89.57 581.07
  Q 82.54 573.31 76.36 565.52
  Q 12.11 484.49 1.51 380.86
  Q 1.09 376.73 0.72 369.63
  Q 0.43 364.00 0.00 358.37
  L 0.00 337.50
  Q 0.43 331.84 0.74 326.16
  Q 1.12 319.02 1.55 314.85
  Q 11.84 214.41 72.95 134.78
  Q 78.89 127.04 85.97 118.99
  Q 138.85 58.89 212.20 27.62
  Q 263.12 5.91 319.64 1.32
  Q 328.75 0.58 337.88 0.00
  Z
  M 129.52 222.43
  Q 129.01 222.84 128.67 223.44
  C 110.63 254.98 99.48 289.83 96.16 325.94
  Q 89.14 402.32 125.44 470.59
  Q 127.33 474.14 129.52 478.00
  Q 154.18 520.62 193.17 551.33
  C 238.19 586.77 293.62 605.98 350.97 605.97
  Q 359.61 606.16 368.25 605.55
  Q 427.31 601.40 478.58 572.12
  Q 479.06 571.84 479.08 571.51
  Q 525.71 544.57 556.88 503.12
  Q 600.56 445.04 606.39 370.10
  Q 608.31 345.48 604.57 321.63
  Q 603.81 316.77 601.91 313.63
  C 598.10 307.29 592.31 305.40 584.89 305.42
  Q 488.56 305.61 379.85 305.44
  C 372.59 305.43 366.44 308.87 363.54 315.50
  Q 362.04 318.92 362.08 324.90
  Q 362.32 368.28 362.10 387.16
  Q 361.95 399.96 372.57 404.28
  Q 375.74 405.57 378.94 405.57
  Q 441.56 405.54 495.89 405.58
  A 0.40 0.39 10.9 0 1 496.26 406.12
  Q 475.85 456.79 428.96 484.76
  Q 425.22 486.50 421.34 488.51
  Q 397.04 501.05 370.01 504.49
  Q 366.40 504.94 360.48 505.27
  Q 355.58 505.54 350.93 505.83
  C 294.69 505.43 244.65 476.09 216.37 428.13
  Q 216.26 427.94 216.04 427.97
  Q 216.15 427.74 216.02 427.50
  Q 197.16 394.69 195.30 356.75
  Q 193.10 311.97 216.28 272.07
  C 244.71 223.72 294.74 194.57 350.95 194.16
  Q 355.76 194.48 360.81 194.75
  C 393.18 196.44 423.79 208.81 449.20 229.29
  Q 457.59 236.05 466.87 232.40
  C 470.66 230.91 473.75 227.66 476.57 224.81
  Q 496.45 204.77 518.15 183.14
  C 524.17 177.14 526.67 170.06 522.89 162.15
  Q 521.24 158.69 516.24 154.52
  Q 458.85 106.66 385.76 96.18
  Q 369.32 93.82 350.96 94.00
  C 259.55 94.18 175.39 142.64 129.53 222.00
  Q 129.40 222.23 129.52 222.43
  Z"
/>
<path fill="#ff4b26" d="
  M 350.96 94.00
  L 350.95 194.16
  C 294.74 194.57 244.71 223.72 216.28 272.07
  L 129.52 222.43
  Q 129.40 222.23 129.53 222.00
  C 175.39 142.64 259.55 94.18 350.96 94.00
  Z"
/>
<path fill="#d93f21" d="
  M 350.96 94.00
  Q 369.32 93.82 385.76 96.18
  Q 458.85 106.66 516.24 154.52
  Q 521.24 158.69 522.89 162.15
  C 526.67 170.06 524.17 177.14 518.15 183.14
  Q 496.45 204.77 476.57 224.81
  C 473.75 227.66 470.66 230.91 466.87 232.40
  Q 457.59 236.05 449.20 229.29
  C 423.79 208.81 393.18 196.44 360.81 194.75
  Q 355.76 194.48 350.95 194.16
  L 350.96 94.00
  Z"
/>
<path fill="#ffd500" d="
  M 129.52 222.43
  L 216.28 272.07
  Q 193.10 311.97 195.30 356.75
  Q 197.16 394.69 216.02 427.50
  Q 216.15 427.74 216.04 427.97
  L 129.52 478.00
  Q 127.33 474.14 125.44 470.59
  Q 89.14 402.32 96.16 325.94
  C 99.48 289.83 110.63 254.98 128.67 223.44
  Q 129.01 222.84 129.52 222.43
  Z"
/>
<path fill="#167ee6" d="
  M 479.08 571.51
  L 428.96 484.76
  Q 475.85 456.79 496.26 406.12
  A 0.40 0.39 10.9 0 0 495.89 405.58
  Q 441.56 405.54 378.94 405.57
  Q 375.74 405.57 372.57 404.28
  Q 361.95 399.96 362.10 387.16
  Q 362.32 368.28 362.08 324.90
  Q 362.04 318.92 363.54 315.50
  C 366.44 308.87 372.59 305.43 379.85 305.44
  Q 488.56 305.61 584.89 305.42
  C 592.31 305.40 598.10 307.29 601.91 313.63
  Q 603.81 316.77 604.57 321.63
  Q 608.31 345.48 606.39 370.10
  Q 600.56 445.04 556.88 503.12
  Q 525.71 544.57 479.08 571.51
  Z"
/>
<path fill="#12b347" d="
  M 216.04 427.97
  Q 216.26 427.94 216.37 428.13
  C 244.65 476.09 294.69 505.43 350.93 505.83
  L 350.97 605.97
  C 293.62 605.98 238.19 586.77 193.17 551.33
  Q 154.18 520.62 129.52 478.00
  L 216.04 427.97
  Z"
/>
<path fill="#0f993e" d="
  M 428.96 484.76
  L 479.08 571.51
  Q 479.06 571.84 478.58 572.12
  Q 427.31 601.40 368.25 605.55
  Q 359.61 606.16 350.97 605.97
  L 350.93 505.83
  Q 355.58 505.54 360.48 505.27
  Q 366.40 504.94 370.01 504.49
  Q 397.04 501.05 421.34 488.51
  Q 425.22 486.50 428.96 484.76
  Z"
/>
</svg>
